<svg xmlns="http://www.w3.org/2000/svg" xmlns:xlink="http://www.w3.org/1999/xlink" width="1743.45" height="1105.957" viewBox="0 0 1743.45 1105.957"><defs><style>.a,.g,.h{fill:none;}.b{fill:#2e2d2c;}.c{fill:#555488;}.d{clip-path:url(#a);}.e{fill:#542f61;}.f{fill:#fff;}.g,.h{stroke:#555488;stroke-miterlimit:10;stroke-width:2px;}.g{stroke-dasharray:12;}</style><clipPath id="a"><rect class="a" width="1367.422" height="770.819" transform="translate(0 0)"/></clipPath></defs><g transform="translate(0 1)"><rect class="b" width="1367.422" height="770.819" transform="translate(105.241 63.351)"/><path class="c" d="M132.391-5.86,46.57,145.068h59.6L191.5-5.86Z" transform="translate(91.786 65.755)"/><path class="c" d="M1199.7,134.065,88.66,133.34l29.24,51.938,1110.8.292Z" transform="translate(79.626 25.538)"/><path class="c" d="M1169.787,1057.71l59.6-104.8h-41.392l-59.241,104.8Z" transform="translate(-220.868 -211.245)"/><path class="c" d="M216.088,988.4l723.013.5-20.3-36.066-722.849-.2Z" transform="translate(48.629 -211.167)"/><g class="d" transform="translate(105.241 63.351)"><path class="c" d="M562.919,1078.47H0l217.991-368.5H780.91Z" transform="translate(0 -204.408)"/><path class="e" d="M738.913,830.537H307.83l574.1-978.727H1313Z" transform="translate(-88.936 43.525)"/><path class="c" d="M1415.044,220.31H924.28l217.991-368.5h490.764Z" transform="translate(-267.036 43.525)"/></g><path class="f" d="M319.807,541.324a8.618,8.618,0,0,0,6.236,2.731c1.842,0,2.958-.967,2.958-2.233,0-1.543-1.5-2.268-3.655-3.079-3.307-1.195-7.737-2.617-7.737-8.042,0-4.117,3.2-7.822,9.009-7.822a12.245,12.245,0,0,1,8.234,2.93l-2.887,4.622a8.07,8.07,0,0,0-5.426-2.133c-1.735,0-2.581.889-2.581,2.041,0,1.422,1.465,2.076,3.655,2.887,3.314,1.195,7.7,2.809,7.7,8.007,0,4.885-3.385,8.192-9.2,8.192-4.153,0-7.111-1.266-9.244-3.342Z" transform="translate(13.693 -87.003)"/><path class="f" d="M355.842,550.008a6.243,6.243,0,0,1-4.892,2.268,5.78,5.78,0,0,1-5.81-6.151,5.512,5.512,0,0,1,5.81-5.93,6.1,6.1,0,0,1,4.892,2.133V540.2c0-1.735-1.195-2.887-3.271-2.887a7.069,7.069,0,0,0-4.579,1.92l-1.97-3.733a11.613,11.613,0,0,1,7.623-2.7c4.231,0,7.737,1.813,7.737,6.812v12.245h-5.539Zm0-4.736a3.057,3.057,0,0,0-2.7-1.422,2.4,2.4,0,1,0,0,4.807,3.057,3.057,0,0,0,2.7-1.458Z" transform="translate(5.526 -89.87)"/><path class="f" d="M382.472,550.005a6.243,6.243,0,0,1-4.892,2.268,5.78,5.78,0,0,1-5.81-6.151,5.512,5.512,0,0,1,5.81-5.93,6.092,6.092,0,0,1,4.892,2.133v-2.133c0-1.735-1.195-2.887-3.271-2.887a7.111,7.111,0,0,0-4.579,1.92l-1.977-3.74a11.581,11.581,0,0,1,7.616-2.7c4.267,0,7.737,1.813,7.737,6.812v12.245h-5.539Zm0-4.736a3.051,3.051,0,0,0-2.7-1.422,2.4,2.4,0,0,0,0,4.807,3.05,3.05,0,0,0,2.7-1.458Z" transform="translate(-2.168 -89.868)"/><path class="f" d="M400.1,545.839a8.91,8.91,0,0,0,5.276,2.2c1.536,0,2.3-.576,2.3-1.5s-1.152-1.351-2.766-1.771c-2.659-.711-6.4-1.657-6.4-6.122,0-3.115,2.5-5.852,7.239-5.852a11.129,11.129,0,0,1,6.848,2.354l-2.133,3.733a6.989,6.989,0,0,0-4.658-1.849c-1.195,0-2.041.5-2.041,1.308s1,1.23,2.624,1.657c2.731.711,6.613,1.728,6.613,6.307,0,3.506-2.923,6-7.5,6a11.034,11.034,0,0,1-7.623-2.652Z" transform="translate(-9.711 -89.868)"/><path class="f" d="M323.42,510.405a3.32,3.32,0,0,1-2.61,1.28c-2.133,0-3.74-1.614-3.74-4.423s1.586-4.444,3.74-4.444a3.257,3.257,0,0,1,2.61,1.294v-4.3h2.233v11.662H323.42Zm0-4.651a2.446,2.446,0,0,0-1.927-.96,2.481,2.481,0,0,0,0,4.914,2.468,2.468,0,0,0,1.927-.96Z" transform="translate(13.636 -80.339)"/><path class="f" d="M331.488,508.431a4.473,4.473,0,1,1,4.459,4.444,4.267,4.267,0,0,1-4.458-4.444Zm6.627,0a2.227,2.227,0,0,0-2.169-2.446,2.2,2.2,0,0,0-2.133,2.446,2.171,2.171,0,1,0,4.3,0Z" transform="translate(9.471 -81.529)"/><path class="f" d="M350.025,504a3.89,3.89,0,0,1,3.342,1.536l-1.422,1.351a2.084,2.084,0,0,0-1.785-.91,2.46,2.46,0,0,0,0,4.914,2.133,2.133,0,0,0,1.785-.91l1.422,1.344a3.89,3.89,0,0,1-3.342,1.543,4.437,4.437,0,1,1,0-8.867Z" transform="translate(5.448 -81.547)"/><path class="f" d="M361.875,508.222l-1.01,1.081v2.169H358.64V499.81h2.226v6.976l3.2-3.762h2.723l-3.335,3.833,3.442,4.615h-2.78Z" transform="translate(1.626 -80.339)"/><path class="f" d="M374.83,503.994c2.517,0,4.231,1.884,4.231,4.651v.491h-6.279a2.276,2.276,0,0,0,2.432,1.956,3.434,3.434,0,0,0,2.254-.839l.981,1.422a5.184,5.184,0,0,1-3.477,1.173,4.437,4.437,0,1,1-.142-8.867Zm-2.083,3.634h4.167a1.963,1.963,0,0,0-2.083-1.87,2.034,2.034,0,0,0-2.084,1.9Z" transform="translate(-1.743 -81.544)"/><path class="f" d="M384.922,509.744v-4.409H383.5v-1.941h1.422v-2.3h2.24v2.3h1.714v1.941h-1.714v3.811c0,.526.277.932.768.932a1.166,1.166,0,0,0,.768-.249l.476,1.685a2.788,2.788,0,0,1-1.856.54A2.112,2.112,0,0,1,384.922,509.744Z" transform="translate(-5.557 -80.709)"/><path class="c" d="M226.77,565.13H190l14.243-24.07h36.77Z" transform="translate(50.348 -92.257)"/><path class="e" d="M238.269,548.934H210.11L247.613,485h28.159Z" transform="translate(44.538 -76.06)"/><path class="c" d="M282.436,509.07H250.38L264.616,485h32.063Z" transform="translate(32.903 -76.06)"/><path class="g" d="M1700.913,502.365H1596.07l46.569-78.725h104.843Z" transform="translate(-355.883 -58.333)"/><path class="g" d="M1700.913,613.075H1596.07l46.569-78.725h104.843Z" transform="translate(-355.883 -90.318)"/><circle class="h" cx="269.787" cy="269.787" r="269.787" transform="translate(1202.876 564.383)"/><line class="h" x1="285.331" y1="285.331" transform="translate(1187.332 548.839)"/><path class="g" d="M1358.055,452.81,1178.84,758.265h259.376l154.8,154.79" transform="translate(-235.34 -66.76)"/><line class="h" y1="194.056" x2="113.852" transform="translate(616.158 171.13)"/><line class="g" x1="480.695" transform="translate(151.462 243.967)"/><line class="g" x1="480.695" transform="translate(0 522.756)"/><circle class="c" cx="9.728" cy="9.728" r="9.728" transform="translate(132.006 234.24)"/><circle class="c" cx="9.728" cy="9.728" r="9.728" transform="translate(1112.391 376.322)"/><circle class="e" cx="9.728" cy="9.728" r="9.728" transform="translate(607.767 353.176)"/><circle class="e" cx="9.728" cy="9.728" r="9.728" transform="translate(468.536 513.029)"/><circle class="e" cx="9.728" cy="9.728" r="9.728" transform="translate(1177.661 539.168)"/><line class="g" y2="78.725" transform="translate(1240.187 444.032)"/><line class="g" y2="78.725" transform="translate(1345.03 444.032)"/><line class="g" y2="78.725" transform="translate(1391.599 365.307)"/><line class="g" y1="78.725" transform="translate(1286.756 365.307)"/><path class="g" d="M426.126-26.028H340.81L378.7-90.09H464.02Z" transform="translate(6.777 90.09)"/><path class="g" d="M426.126,64.062H340.81L378.7,0H464.02Z" transform="translate(6.777 64.062)"/><line class="g" y2="64.062" transform="translate(347.587 64.062)"/><line class="g" y2="64.062" transform="translate(432.903 64.062)"/><path class="g" d="M567.5,407.915H482.18l37.894-64.055H605.39Z" transform="translate(-34.067 -35.283)"/><path class="g" d="M567.5,498H482.18l37.894-64.062H605.39Z" transform="translate(-34.067 -61.309)"/><line class="g" y2="64.062" transform="translate(448.113 372.631)"/><line class="g" y2="64.062" transform="translate(533.43 372.631)"/><line class="g" y2="64.055" transform="translate(571.324 308.577)"/><line class="g" y1="64.055" transform="translate(486.007 308.577)"/><path class="g" d="M106.843,799.294H4.29l45.552-77H152.4Z" transform="translate(104.002 -144.616)"/><path class="g" d="M106.843,907.584H4.29l45.552-77H152.4Z" transform="translate(104.002 -175.903)"/><line class="g" y2="77.004" transform="translate(210.845 654.677)"/><line class="g" y2="77.004" transform="translate(256.397 577.674)"/><line class="g" y1="77.004" transform="translate(153.844 577.674)"/></g></svg>